<svg xmlns="http://www.w3.org/2000/svg" viewBox="0 0 100 18.6"><style type="text/css">  
	.st0{fill:#FFFFFF;}
</style><path class="st0" d="M79.7 16.6H66.5c-1.8 0-2.3-0.5-2.3-1.9V7.4c0-0.2 0.2-0.4 0.4-0.5h7.6c0.2 0 0.5 0.2 0.7 0.3l6.9 9C80 16.4 79.9 16.6 79.7 16.6M11.3 16.5h-3c-0.3 0-0.5-0.2-0.5-0.5V2.5C7.9 2.2 8.1 2 8.3 2h3c7.5 0 11.4 3.1 11.4 7.3C22.8 13.5 18.8 16.5 11.3 16.5M99.7 5h-2.2c-0.4 0-0.7 0.4-0.8 0.4l-8.3 10.9c-0.2 0.2-0.4 0.2-0.5 0L80.3 5.4c0 0-0.3-0.4-0.8-0.4H64.7c-0.3 0-0.5-0.2-0.5-0.5l0-3.6c0-0.5-0.4-0.9-0.9-0.9H40.8c-3.5 0.1-5 0.5-6.6 1.4 -1.5 0.9-2.2 2-2.2 3.3 0 1.4 1.1 2.8 3.4 4.1 0.6 0.4 2.7 1.4 6.3 3 2.3 1.1 3.5 1.9 3.4 2.8 -0.1 1.4-1.4 1.9-4.4 1.9H27.1c-0.3 0-0.6-0.1-0.6-0.3 0-0.1 0.1-0.2 0.2-0.3 3.1-1.8 4.1-4.3 4.1-6.6 0-4.2-3.5-9.3-17.6-9.3H0.9C0.4 0 0 0.4 0 0.9v16.7c0 0.5 0.4 0.9 0.9 0.9h12.2c0.5 0 0.9 0 1.4 0h30.6c2.8 0 5-0.5 6.6-1.4 1.5-0.9 2.2-1.9 2.2-3.3 0-1.4-1.1-2.8-3.4-4.1 -0.6-0.4-2.7-1.4-6.3-3.1 -2.3-1.1-3.4-1.9-3.4-2.6 0-1.4 1.5-2.1 4.4-2.1h10.4c0.3 0 0.5 0.2 0.5 0.5l0 12.1c0 1.8 1.2 3.9 4.7 3.9h28.5c0.7 0 1-0.4 1-0.4l9.8-12.8C99.9 5.3 100.2 5 99.7 5"/></svg>